<?xml version="1.0" encoding="utf-8"?>
<!-- Generator: Adobe Illustrator 26.5.0, SVG Export Plug-In . SVG Version: 6.00 Build 0)  -->
<svg version="1.1" id="Layer_1" xmlns="http://www.w3.org/2000/svg" xmlns:xlink="http://www.w3.org/1999/xlink" x="0px" y="0px"
	 viewBox="0 0 700 450" style="enable-background:new 0 0 700 450;" xml:space="preserve">
<style type="text/css">
	.st0{fill:#FFFFFF;}
</style>
<g>
	<g>
		<path class="st0" d="M169.3,183.73c-40.37,0-73.1,32.03-73.1,72.41c0,55.82,73.3,85.44,73.1,85.36
			c-0.21,0.08,73.1-29.54,73.1-85.36C242.4,215.77,209.67,183.73,169.3,183.73z M169.3,285.45c-15.28,0-27.67-12.39-27.67-27.67
			s12.39-27.67,27.67-27.67s27.67,12.39,27.67,27.67S184.59,285.45,169.3,285.45z"/>
		<path class="st0" d="M185.76,91.5c-17.06,0-28.94,11.92-30.81,25.95c-22.75-6.28-40.57,10.95-40.57,30.03
			c0,14.55,9.97,26.3,23.33,30.12c10.76,3.07,30.11,0.79,30.11,0.79c-0.1-4.7,4.23-9.87,10.91-14.56
			c18.99-13.36,33.86-19.66,36.15-37.88C217.29,106.89,203.14,91.5,185.76,91.5z"/>
	</g>
	<g>
		<path class="st0" d="M387.49,208.9c-15.44,4.86-42.17,7.43-67.28,7.43v-30.54h51.85v-22.74H292.4v77.45
			c43.57,0,81.61-5.26,97.67-10.23L387.49,208.9z"/>
		<polygon class="st0" points="424.1,154 396.34,154 396.34,243.02 424.1,243.02 424.1,215.12 446.5,215.12 446.5,190.82 
			424.1,190.82 		"/>
		<path class="st0" d="M372.52,242.81c-29.42,0-51.03,16.22-51.03,39.97c0,23.75,21.6,39.97,51.03,39.97
			c29.42,0,51.03-16.22,51.03-39.97C423.55,259.03,401.94,242.81,372.52,242.81z M372.52,300.55c-13.27,0-23.21-6.36-23.21-17.77
			c0-11.41,9.95-17.77,23.21-17.77c13.26,0,23.21,6.36,23.21,17.77C395.73,294.19,385.79,300.55,372.52,300.55z"/>
		<g>
			<polygon class="st0" points="500.58,254.63 472.19,254.63 472.19,314.86 585.03,314.86 585.03,291.02 500.58,291.02 			"/>
			<path class="st0" d="M581.51,161.43h-110.6v23.84h82.73c0,5.92,0.27,20.04-2.43,36.04H449.76v24.66H603.8v-24.66h-27.47
				C579.97,201.08,581.05,185.32,581.51,161.43z"/>
		</g>
	</g>
</g>
</svg>
