<?xml version="1.0" encoding="utf-8"?>
<!-- Generator: Adobe Illustrator 26.5.0, SVG Export Plug-In . SVG Version: 6.00 Build 0)  -->
<svg version="1.1" id="Layer_1" xmlns="http://www.w3.org/2000/svg" xmlns:xlink="http://www.w3.org/1999/xlink" x="0px" y="0px"
	 viewBox="0 0 500 500" style="enable-background:new 0 0 500 500;" xml:space="preserve">
<style type="text/css">
	.st0{fill:#FFFFFF;}
</style>
<g>
	<g>
		<g>
			<path class="st0" d="M250,197.58c-64.59,0-116.96,51.26-116.96,115.85c0,89.31,117.29,136.7,116.96,136.57
				c-0.33,0.13,116.96-47.26,116.96-136.57C366.96,248.84,314.59,197.58,250,197.58z M250,360.32c-24.45,0-44.28-19.82-44.28-44.28
				c0-24.45,19.82-44.28,44.28-44.28s44.28,19.82,44.28,44.28C294.28,340.5,274.45,360.32,250,360.32z"/>
		</g>
	</g>
	<path class="st0" d="M276.33,50c-27.3,0-46.3,19.07-49.29,41.53c-36.4-10.05-64.91,17.52-64.91,48.04
		c0,23.28,15.95,42.09,37.32,48.19c17.21,4.91,48.18,1.26,48.18,1.26c-0.16-7.53,6.77-15.78,17.46-23.3
		c30.38-21.38,54.17-31.45,57.85-60.61C326.78,74.64,304.14,50,276.33,50z"/>
</g>
</svg>
