<?xml version="1.0" encoding="utf-8"?>
<!-- Generator: Adobe Illustrator 26.5.0, SVG Export Plug-In . SVG Version: 6.00 Build 0)  -->
<svg version="1.1" id="Layer_1" xmlns="http://www.w3.org/2000/svg" xmlns:xlink="http://www.w3.org/1999/xlink" x="0px" y="0px"
	 viewBox="0 0 700 450" style="enable-background:new 0 0 700 450;" xml:space="preserve">
<style type="text/css">
	.st0{fill:#FF6F0F;}
	.st1{fill:#00A05B;}
</style>
<g>
	<g>
		<path class="st0" d="M169.3,183.73c-40.37,0-73.1,32.03-73.1,72.41c0,55.82,73.3,85.44,73.1,85.36
			c-0.21,0.08,73.1-29.54,73.1-85.36C242.4,215.77,209.67,183.73,169.3,183.73z M169.3,285.45c-15.28,0-27.67-12.39-27.67-27.67
			s12.39-27.67,27.67-27.67s27.67,12.39,27.67,27.67S184.59,285.45,169.3,285.45z"/>
		<path class="st1" d="M185.76,91.5c-17.06,0-28.94,11.92-30.81,25.95c-22.75-6.28-40.57,10.95-40.57,30.03
			c0,14.55,9.97,26.3,23.33,30.12c10.76,3.07,30.11,0.79,30.11,0.79c-0.1-4.7,4.23-9.87,10.91-14.56
			c18.99-13.36,33.86-19.66,36.15-37.88C217.29,106.89,203.14,91.5,185.76,91.5z"/>
	</g>
	<g>
		<path class="st0" d="M387.49,208.9c-15.44,4.86-42.17,7.43-67.28,7.43v-30.54h51.85v-22.74H292.4v77.45
			c43.57,0,81.61-5.26,97.67-10.23L387.49,208.9z"/>
		<polygon class="st0" points="424.1,154 396.34,154 396.34,243.02 424.1,243.02 424.1,215.12 446.5,215.12 446.5,190.82 
			424.1,190.82 		"/>
		<path class="st0" d="M372.52,242.81c-29.42,0-51.03,16.22-51.03,39.97c0,23.75,21.6,39.97,51.03,39.97
			c29.42,0,51.03-16.22,51.03-39.97C423.55,259.03,401.94,242.81,372.52,242.81z M372.52,300.55c-13.27,0-23.21-6.36-23.21-17.77
			c0-11.41,9.95-17.77,23.21-17.77c13.26,0,23.21,6.36,23.21,17.77C395.73,294.19,385.79,300.55,372.52,300.55z"/>
		<g>
			<polygon class="st0" points="500.58,254.63 472.19,254.63 472.19,314.86 585.03,314.86 585.03,291.02 500.58,291.02 			"/>
			<path class="st0" d="M581.51,161.43h-110.6v23.84h82.73c0,5.92,0.27,20.04-2.43,36.04H449.76v24.66H603.8v-24.66h-27.47
				C579.97,201.08,581.05,185.32,581.51,161.43z"/>
		</g>
	</g>
</g>
<g>
	<rect x="800" class="st0" width="67.5" height="67.5"/>
	<rect x="800" y="86.41" class="st1" width="67.5" height="67.5"/>
	<g>
		<path d="M882.18,20.92h2.76c1.9,0,2.87,0.8,2.87,2.41c0,1.15-0.56,1.76-1.49,2.12v0.06l2.04,3.63h-1.61l-1.83-3.32h-1.26v3.32
			h-1.47V20.92z M884.78,24.81c1.07,0,1.5-0.47,1.5-1.43c0-0.94-0.46-1.32-1.51-1.32h-1.12v2.75H884.78z"/>
		<path d="M889.54,22.83h1.46v1.42h-1.46V22.83z M889.54,27.17h1.46v1.42h-1.46V27.17z"/>
		<path d="M892.54,28.28l1.57-1.65c1.14-1.2,2.05-2.22,2.05-3.25c0-1-0.54-1.38-1.58-1.38c-0.58,0-1.25,0.28-1.7,0.55l-0.24-1.09
			c0.55-0.32,1.39-0.62,2.34-0.62c1.8,0,2.72,0.86,2.72,2.35c0,1.46-1.25,2.77-2.25,3.81l-0.97,1h3.3v1.15h-5.23V28.28z"/>
		<path d="M898.71,28.7l0.26-1.13c0.44,0.26,1.07,0.49,1.7,0.49c1.14,0,1.83-0.55,1.83-1.55c0-1.04-0.65-1.48-1.78-1.48
			c-0.52,0-1.28,0.25-1.67,0.44l0.3-4.52h4.29v1.15h-3.17l-0.16,2c0.28-0.07,0.72-0.14,1.03-0.14c1.64,0,2.66,0.84,2.66,2.58
			c0,1.52-1.12,2.71-2.99,2.71C900.11,29.27,899.24,29.03,898.71,28.7z"/>
		<path d="M904.87,28.7l0.26-1.13c0.44,0.26,1.07,0.49,1.7,0.49c1.14,0,1.83-0.55,1.83-1.55c0-1.04-0.65-1.48-1.78-1.48
			c-0.52,0-1.28,0.25-1.67,0.44l0.3-4.52h4.29v1.15h-3.17l-0.16,2c0.28-0.07,0.72-0.14,1.03-0.14c1.64,0,2.66,0.84,2.66,2.58
			c0,1.52-1.12,2.71-2.99,2.71C906.27,29.27,905.39,29.03,904.87,28.7z"/>
		<path d="M916.69,20.21h1.2l-2.85,10.18h-1.21L916.69,20.21z"/>
		<path d="M921.81,25.2v-0.25c0-3.13,1.89-4.16,4.03-4.16c1.06,0,1.78,0.23,2.25,0.48v1.18c-0.49-0.22-1.13-0.46-2.22-0.46
			c-1.93,0-2.51,1.3-2.51,2.84v0.37c0,1.7,0.44,2.91,2.37,2.91c0.48,0,0.96-0.08,1.26-0.18v-1.87h-1.52v-1.1h2.96v3.81
			c-0.62,0.25-1.58,0.5-2.69,0.5C923.35,29.28,921.81,28.09,921.81,25.2z"/>
		<path d="M930.08,22.83h1.46v1.42h-1.46V22.83z M930.08,27.17h1.46v1.42h-1.46V27.17z"/>
		<path d="M933.78,22.43l-1.38,0.28v-0.86l2.09-0.93h0.78v8.29h-1.49V22.43z"/>
		<path d="M938.23,22.43l-1.38,0.28v-0.86l2.09-0.93h0.78v8.29h-1.49V22.43z"/>
		<path d="M942.67,22.43l-1.38,0.28v-0.86l2.09-0.93h0.78v8.29h-1.49V22.43z"/>
		<path d="M951.36,20.21h1.2l-2.85,10.18h-1.21L951.36,20.21z"/>
		<path d="M956.91,20.92h2.88c1.9,0,2.71,0.77,2.71,2.07c0,0.86-0.36,1.49-1.34,1.8v0.04c1.03,0.19,1.7,0.77,1.7,1.97
			c0,1.37-0.92,2.35-2.87,2.35h-3.08V20.92z M959.52,24.42c0.86,0,1.51-0.29,1.51-1.22c0-0.89-0.5-1.19-1.45-1.19h-1.21v2.41H959.52
			z M959.79,28.04c1,0,1.52-0.43,1.52-1.33c0-0.95-0.56-1.31-1.61-1.31h-1.33v2.64H959.79z"/>
		<path d="M964.3,22.83h1.46v1.42h-1.46V22.83z M964.3,27.17h1.46v1.42h-1.46V27.17z"/>
		<path d="M968.01,22.43l-1.38,0.28v-0.86l2.09-0.93h0.78v8.29h-1.49V22.43z"/>
		<path d="M971.05,28.7l0.26-1.13c0.44,0.26,1.07,0.49,1.7,0.49c1.14,0,1.83-0.55,1.83-1.55c0-1.04-0.65-1.48-1.78-1.48
			c-0.52,0-1.28,0.25-1.67,0.44l0.3-4.52H976v1.15h-3.17l-0.16,2c0.28-0.07,0.72-0.14,1.03-0.14c1.64,0,2.66,0.84,2.66,2.58
			c0,1.52-1.12,2.71-2.99,2.71C972.45,29.27,971.57,29.03,971.05,28.7z"/>
		<path d="M881.92,41.07h1.16l0.34-2.17h1.02l-0.35,2.17h1.17l0.36-2.17h1.01l-0.35,2.17h0.86v1.13h-1.03l-0.23,1.37h0.95v1.12
			h-1.12l-0.37,2.29h-1.01l0.37-2.29h-1.19l-0.37,2.29h-1.01l0.35-2.29h-0.9v-1.12h1.09l0.22-1.37h-0.98V41.07z M883.69,43.56h1.19
			l0.24-1.37h-1.19L883.69,43.56z"/>
		<path d="M888.54,38.92h5.05v1.16h-3.57v2.46h2.78v1.14h-2.78v3.47h-1.47V38.92z"/>
		<path d="M895.05,38.92h5.05v1.16h-3.57v2.46h2.78v1.14h-2.78v3.47h-1.47V38.92z"/>
		<path d="M901.17,43.65v-0.59c0-3.07,1.57-4.21,3.53-4.21c0.83,0,1.57,0.25,1.92,0.46l-0.29,1.08c-0.31-0.17-1.01-0.36-1.55-0.36
			c-1.22,0-2.03,0.6-2.15,2.71c0.42-0.36,1.07-0.72,1.92-0.72c1.42,0,2.45,0.89,2.45,2.46c0,1.57-0.98,2.82-2.81,2.82
			C902.2,47.29,901.17,45.9,901.17,43.65z M905.57,44.58c0-1.1-0.61-1.51-1.45-1.51c-0.6,0-1.19,0.42-1.48,0.8v0.07
			c0,1.39,0.43,2.25,1.51,2.25C905.03,46.2,905.57,45.61,905.57,44.58z"/>
		<path d="M908.49,38.92h5.05v1.16h-3.57v2.46h2.78v1.14h-2.78v3.47h-1.47V38.92z"/>
		<path d="M914.68,43.35v-0.52c0-2.94,1.51-3.99,3.2-3.99c1.7,0,3.17,1.07,3.17,3.96v0.52c0,2.89-1.46,3.98-3.18,3.98
			C916.07,47.29,914.68,46.14,914.68,43.35z M919.53,43.41v-0.61c0-1.96-0.56-2.82-1.64-2.82c-1.12,0-1.67,0.82-1.67,2.73v0.64
			c0,1.91,0.54,2.82,1.66,2.82C918.98,46.17,919.53,45.37,919.53,43.41z"/>
		<path d="M922.76,38.92h5.05v1.16h-3.57v2.46h2.78v1.14h-2.78v3.47h-1.47V38.92z"/>
	</g>
	<g>
		<path d="M882.18,107.33h2.76c1.9,0,2.87,0.8,2.87,2.41c0,1.15-0.56,1.76-1.49,2.12v0.06l2.04,3.63h-1.61l-1.83-3.32h-1.26v3.32
			h-1.47V107.33z M884.78,111.22c1.07,0,1.5-0.47,1.5-1.43c0-0.94-0.46-1.32-1.51-1.32h-1.12v2.75H884.78z"/>
		<path d="M889.54,109.24h1.46v1.42h-1.46V109.24z M889.54,113.58h1.46V115h-1.46V113.58z"/>
		<path d="M892.57,111.76v-0.52c0-2.94,1.51-3.99,3.2-3.99c1.7,0,3.17,1.07,3.17,3.96v0.52c0,2.89-1.46,3.98-3.18,3.98
			C893.96,115.7,892.57,114.55,892.57,111.76z M897.41,111.82v-0.61c0-1.96-0.56-2.82-1.64-2.82c-1.12,0-1.67,0.82-1.67,2.73v0.64
			c0,1.91,0.54,2.82,1.66,2.82C896.86,114.58,897.41,113.78,897.41,111.82z"/>
		<path d="M905.71,106.62h1.2l-2.85,10.18h-1.21L905.71,106.62z"/>
		<path d="M910.83,111.61v-0.25c0-3.13,1.89-4.16,4.03-4.16c1.06,0,1.78,0.23,2.25,0.48v1.18c-0.49-0.22-1.13-0.46-2.22-0.46
			c-1.93,0-2.51,1.3-2.51,2.84v0.37c0,1.7,0.44,2.91,2.38,2.91c0.48,0,0.96-0.08,1.26-0.18v-1.87h-1.52v-1.1h2.96v3.81
			c-0.62,0.25-1.58,0.5-2.69,0.5C912.37,115.69,910.83,114.5,910.83,111.61z"/>
		<path d="M919.1,109.24h1.46v1.42h-1.46V109.24z M919.1,113.58h1.46V115h-1.46V113.58z"/>
		<path d="M922.81,108.84l-1.38,0.28v-0.86l2.09-0.94h0.78v8.29h-1.49V108.84z"/>
		<path d="M926.05,112.06v-0.59c0-3.07,1.57-4.21,3.53-4.21c0.83,0,1.57,0.25,1.92,0.46l-0.29,1.08c-0.31-0.17-1.01-0.36-1.55-0.36
			c-1.22,0-2.03,0.6-2.15,2.71c0.42-0.36,1.07-0.72,1.92-0.72c1.42,0,2.45,0.89,2.45,2.46c0,1.57-0.98,2.82-2.81,2.82
			C927.08,115.7,926.05,114.31,926.05,112.06z M930.45,112.99c0-1.1-0.61-1.51-1.45-1.51c-0.6,0-1.19,0.42-1.48,0.8v0.07
			c0,1.39,0.43,2.25,1.51,2.25C929.91,114.61,930.45,114.02,930.45,112.99z"/>
		<path d="M932.98,111.76v-0.52c0-2.94,1.51-3.99,3.2-3.99c1.7,0,3.17,1.07,3.17,3.96v0.52c0,2.89-1.46,3.98-3.18,3.98
			C934.37,115.7,932.98,114.55,932.98,111.76z M937.83,111.82v-0.61c0-1.96-0.56-2.82-1.64-2.82c-1.12,0-1.67,0.82-1.67,2.73v0.64
			c0,1.91,0.54,2.82,1.66,2.82C937.28,114.58,937.83,113.78,937.83,111.82z"/>
		<path d="M946.12,106.62h1.2l-2.85,10.18h-1.21L946.12,106.62z"/>
		<path d="M951.67,107.33h2.88c1.9,0,2.71,0.77,2.71,2.07c0,0.86-0.36,1.49-1.34,1.8v0.04c1.03,0.19,1.7,0.77,1.7,1.97
			c0,1.37-0.92,2.35-2.87,2.35h-3.08V107.33z M954.28,110.83c0.86,0,1.51-0.29,1.51-1.22c0-0.89-0.5-1.19-1.45-1.19h-1.21v2.41
			H954.28z M954.54,114.46c1,0,1.52-0.43,1.52-1.33c0-0.95-0.56-1.31-1.61-1.31h-1.33v2.64H954.54z"/>
		<path d="M959.06,109.24h1.46v1.42h-1.46V109.24z M959.06,113.58h1.46V115h-1.46V113.58z"/>
		<path d="M967.61,110.87v0.55c0,3.18-1.46,4.28-3.45,4.28c-0.83,0-1.62-0.29-2-0.52l0.25-1.08c0.33,0.18,1.08,0.41,1.67,0.41
			c1.2,0,2.01-0.49,2.09-2.58c-0.42,0.38-1.07,0.73-1.93,0.73c-1.4,0-2.45-0.97-2.45-2.55c0-1.61,0.94-2.85,2.76-2.85
			C966.51,107.26,967.61,108.55,967.61,110.87z M963.2,110.01c0,1.1,0.62,1.59,1.46,1.59c0.6,0,1.21-0.41,1.49-0.8v-0.2
			c0-1.37-0.47-2.24-1.57-2.24C963.68,108.35,963.2,109,963.2,110.01z"/>
		<path d="M969.95,108.84l-1.38,0.28v-0.86l2.09-0.94h0.78v8.29h-1.49V108.84z"/>
		<path d="M881.92,127.48h1.16l0.34-2.17h1.02l-0.35,2.17h1.17l0.36-2.17h1.01l-0.35,2.17h0.86v1.13h-1.03l-0.23,1.37h0.95v1.12
			h-1.12l-0.37,2.29h-1.01l0.37-2.29h-1.19l-0.37,2.29h-1.01l0.35-2.29h-0.9v-1.12h1.09l0.22-1.37h-0.98V127.48z M883.69,129.97
			h1.19l0.24-1.37h-1.19L883.69,129.97z"/>
		<path d="M888.21,129.76v-0.52c0-2.94,1.51-3.99,3.2-3.99c1.7,0,3.17,1.07,3.17,3.96v0.52c0,2.89-1.46,3.98-3.18,3.98
			C889.6,133.7,888.21,132.55,888.21,129.76z M893.06,129.82v-0.61c0-1.96-0.56-2.82-1.64-2.82c-1.12,0-1.67,0.82-1.67,2.73v0.64
			c0,1.91,0.54,2.82,1.66,2.82C892.51,132.58,893.06,131.78,893.06,129.82z"/>
		<path d="M895.96,129.76v-0.52c0-2.94,1.51-3.99,3.2-3.99c1.7,0,3.17,1.07,3.17,3.96v0.52c0,2.89-1.46,3.98-3.18,3.98
			C897.35,133.7,895.96,132.55,895.96,129.76z M900.81,129.82v-0.61c0-1.96-0.56-2.82-1.64-2.82c-1.12,0-1.67,0.82-1.67,2.73v0.64
			c0,1.91,0.54,2.82,1.66,2.82C900.26,132.58,900.81,131.78,900.81,129.82z"/>
		<path d="M906.22,125.33h1.51l2.93,8.23h-1.52l-0.74-2.09h-3.06l-0.74,2.09h-1.37L906.22,125.33z M905.68,130.37h2.34l-1.15-3.29
			h-0.04L905.68,130.37z"/>
		<path d="M911.52,129.76v-0.52c0-2.94,1.51-3.99,3.2-3.99c1.7,0,3.17,1.07,3.17,3.96v0.52c0,2.89-1.46,3.98-3.18,3.98
			C912.91,133.7,911.52,132.55,911.52,129.76z M916.36,129.82v-0.61c0-1.96-0.56-2.82-1.64-2.82c-1.12,0-1.67,0.82-1.67,2.73v0.64
			c0,1.91,0.54,2.82,1.66,2.82C915.81,132.58,916.36,131.78,916.36,129.82z"/>
		<path d="M918.99,133.11l0.26-1.13c0.44,0.26,1.07,0.49,1.7,0.49c1.14,0,1.83-0.55,1.83-1.55c0-1.04-0.65-1.48-1.78-1.48
			c-0.52,0-1.28,0.25-1.67,0.44l0.3-4.52h4.29v1.15h-3.17l-0.16,2c0.28-0.07,0.72-0.14,1.03-0.14c1.64,0,2.66,0.84,2.66,2.58
			c0,1.52-1.12,2.71-2.99,2.71C920.4,133.68,919.52,133.44,918.99,133.11z"/>
		<path d="M925.75,125.33h2.88c1.9,0,2.71,0.77,2.71,2.07c0,0.86-0.36,1.49-1.34,1.8v0.04c1.03,0.19,1.7,0.77,1.7,1.97
			c0,1.37-0.92,2.35-2.87,2.35h-3.08V125.33z M928.36,128.83c0.86,0,1.51-0.29,1.51-1.22c0-0.89-0.5-1.19-1.45-1.19h-1.21v2.41
			H928.36z M928.62,132.46c1,0,1.52-0.43,1.52-1.33c0-0.95-0.56-1.31-1.61-1.31h-1.33v2.64H928.62z"/>
	</g>
</g>
</svg>
